<svg width="16" height="10" viewBox="0 0 16 10" fill="none" xmlns="http://www.w3.org/2000/svg">
<path fill-rule="evenodd" clip-rule="evenodd" d="M6.94 8.73775C7.22125 9.01865 7.6025 9.17643 8 9.17643C8.3975 9.17643 8.77875 9.01865 9.06 8.73775L14.718 3.08175C14.8573 2.94242 14.9677 2.77702 15.0431 2.595C15.1184 2.41298 15.1572 2.2179 15.1571 2.0209C15.1571 1.8239 15.1182 1.62884 15.0428 1.44685C14.9674 1.26487 14.8568 1.09952 14.7175 0.960254C14.5782 0.820987 14.4128 0.710527 14.2307 0.635181C14.0487 0.559836 13.8536 0.521079 13.6566 0.521126C13.4596 0.521172 13.2646 0.560021 13.0826 0.635452C12.9006 0.710884 12.7353 0.821421 12.596 0.960753L8 5.55575L3.404 0.959753C3.2657 0.816424 3.10024 0.702074 2.91727 0.623375C2.7343 0.544676 2.53749 0.503207 2.33832 0.501383C2.13915 0.499559 1.94162 0.537419 1.75724 0.612753C1.57286 0.688087 1.40533 0.799387 1.26443 0.940159C1.12352 1.08093 1.01206 1.24836 0.936554 1.43266C0.861046 1.61697 0.822999 1.81447 0.824636 2.01364C0.826272 2.21281 0.867558 2.40966 0.946084 2.5927C1.02461 2.77574 1.1388 2.94132 1.282 3.07975L6.94 8.73775Z" fill="white"/>
</svg>
