<svg width="19" height="19" viewBox="0 0 19 19" fill="none" xmlns="http://www.w3.org/2000/svg">
<path d="M17.622 14.1098V4.89025C18.0325 4.66625 18.3752 4.33575 18.6138 3.93352C18.8524 3.53129 18.9782 3.07219 18.978 2.6045C18.978 1.16625 17.812 0.000250083 16.3737 0.000250083C15.9516 7.62138e-05 15.5358 0.102687 15.1622 0.299218C14.7886 0.495748 14.4685 0.780288 14.2295 1.12825H4.77075C4.53176 0.780288 4.21164 0.495748 3.83804 0.299218C3.46445 0.102687 3.04863 7.62138e-05 2.6265 0.000250083C1.18825 0.000250083 0.0222476 1.16625 0.0222476 2.6045C0.0222476 3.5905 0.570248 4.44825 1.37825 4.89025V14.1095C0.967697 14.3335 0.625095 14.664 0.386475 15.0662C0.147855 15.4685 0.0220349 15.9276 0.0222476 16.3953C0.0222476 17.8335 1.18825 18.9995 2.6265 18.9995C3.71925 18.9995 4.65325 18.3257 5.03975 17.3715H13.9602C14.3467 18.3255 15.2807 18.9995 16.3735 18.9995C17.8117 18.9995 18.9777 17.8335 18.9777 16.3953C18.9777 15.4095 18.4297 14.552 17.622 14.1098ZM3.872 14.108V4.892C4.38805 4.61019 4.79406 4.16269 5.0245 3.62175H13.976C14.2064 4.16269 14.6124 4.61019 15.1285 4.892V14.108C14.785 14.2965 14.4883 14.5597 14.2602 14.8783H4.74025C4.51225 14.5596 4.21551 14.2964 3.872 14.108Z" fill="white"/>
</svg>
