<svg width="5496" height="3632" viewBox="0 0 5496 3632" fill="none" xmlns="http://www.w3.org/2000/svg">
<g filter="url(#filter0_dd_47_19)">
<path d="M3518 2846.5L3323 2934L3575.5 3004L3605.5 2959H3670.5L3693 2991.5L3710.5 2959L3740.5 2971.5H3783L3825.5 2879L3883 2881.5L3923 2809L4050.5 2776.5L4118 2829L4158 2881.5L4193 2901.5L4298 2991.5L4358 3004L4443 3091.5L4555.5 3169L4650.5 3136.5L4740.5 3169L4908 3154L5020.5 3136.5L5115.5 3111.5L5203 3059L5263 2991.5V2934L5283 2881.5L5263 2846.5L5283 2776.5L5360.5 2756.5L5433 2689L5455.5 2589L5360.5 2529L5330.5 2449H5283L5263 2424L5225.5 2389L5203 2339L5093 2329L5055.5 2249L5100.5 2146.5L5075.5 2104V1994V1946.5L5003 1894L4988 1836.5L4950.5 1771.5L4826 1749L4713 1791.5L4753 1864V1894L4700.5 1974L4738 2014V2066.5L4795.5 2124L4870.5 2146.5L4893 2264L4855.5 2309L4700.5 2284L4675.5 2309L4533 2339L4485.5 2436.5L4445.5 2424L4410.5 2449L4385.5 2436.5L4290.5 2424L4218 2436.5L4193 2474H4158L4118 2501.5L4080.5 2516.5H4035.5L3973 2501.5H3923L3825.5 2651.5L3815.5 2741.5L3753 2716.5H3710.5L3620.5 2776.5H3575.5L3555.5 2846.5H3518Z" fill="#1F1F1F"/>
<path d="M3398 406.5L3370.5 426.5L3310.5 481.5V509L3283 539L3323 574H3353L3405.5 526.5H3480.5L3530.5 549L3543 581.5L3590.5 606.5L3598 646.5L3578 686.5L3500.5 706.5L3405.5 721.5L3358 711.5L3323 696.5L3283 721.5L3298 759L3343 796.5L3428 811.5H3530.5L3613 769H3638L3690.5 686.5L3703 606.5L3690.5 554L3665.5 526.5L3638 514L3598 491.5L3568 464L3495.5 439L3445.5 426.5L3398 406.5Z" fill="#87C1D7"/>
<path fill-rule="evenodd" clip-rule="evenodd" d="M3713 731.5L3748 574L3690.5 514H3638L3665.5 526.5L3690.5 554L3703 606.5L3690.5 686.5L3638 769H3613L3530.5 811.5H3428L3343 796.5L3298 759L3283 721.5L3323 696.5L3358 711.5L3405.5 721.5L3500.5 706.5L3578 686.5L3598 646.5L3590.5 606.5L3543 581.5L3530.5 549L3480.5 526.5H3405.5L3353 574H3323L3283 539L3310.5 509V481.5L3370.5 426.5L3270.5 394L3115.5 344L3145.5 386.5L3133 406.5L3140.5 429L3183 456.5V501.5L3198 544L3168 561.5L3150.5 601.5L3198 624L3218 696.5L3198 731.5L3223 776.5V824L3203 846.5L3218 891.5V951.5L3198 1039L3183 1079L3150.5 1121.5L3108 1184L3093 1241.5L3128 1319H3183L3218 1361.5V1399L3285.5 1436.5L3323 1464L3338 1536.5L3323 1614L3270.5 1631.5L3193 1714L3203 1761.5L3190.5 1816.5L3183 1841.5L3203 1881.5L3190.5 1906.5L3218 1974L3248 2056.5L3285.5 2136.5L3323 2146.5L3345.5 2191.5L3383 2211.5L3445.5 2249L3450.5 2171.5L3558 2066.5L3713 2124L3913 2181.5L4035.5 2104L4080.5 1994L4050.5 1836.5V1671.5L4080.5 1499L4105.5 1369L4095.5 1274L3923 1099L3818 1011.5L3713 924L3578 951.5L3353 1011.5L3323 951.5L3445.5 906.5L3625.5 834L3713 731.5ZM3818 1049C3768.49 1037.48 3719.57 1035.01 3672.54 1039C3590.56 1045.96 3514.3 1072.54 3450.5 1105.01C3379.38 1141.2 3323.75 1184.71 3293 1216.5L3388 1284L3465.5 1356.5L3478 1414V1531.5L3465.5 1614L3428 1724L3383 1816.5L3365.5 1894L3450.5 1934H3505.5L3558 1894L3625.5 1881.5L3713 1934L3733 1958.44L3758 1989L3805.5 2066.5L3865.5 2124L3968 2104L4008 2029L4035.5 1961.5L4015.5 1894L3945.5 1816.5L3918 1749L3945.5 1699L3935.5 1659L3918 1591.5L3968 1549L4025.5 1491.5L4035.5 1436.5L4015.5 1386.5L3935.5 1361.5L3870.5 1350.25L3805.5 1339L3811 1284L3825.5 1139L3818 1049Z" fill="#F8FFEF"/>
<path d="M3323 2934L3518 2846.5H3555.5L3575.5 2776.5H3620.5L3710.5 2716.5H3753L3815.5 2741.5L3825.5 2651.5L3923 2501.5H3973L4035.5 2516.5H4080.5L4118 2501.5L4158 2474H4193L4218 2436.5L4290.5 2424L4385.5 2436.5L4410.5 2449L4445.5 2424L4485.5 2436.5L4533 2339L4675.5 2309L4700.5 2284L4855.5 2309L4893 2264L4870.5 2146.5L4795.5 2124L4738 2066.5V2014L4700.5 1974L4753 1894V1864L4713 1791.5L4643 1724L4578 1659L4503 1614H4425.5L4335.5 1659L4290.5 1761.5H4228L4205.5 1791.5L4143 1836.5V1906.5L4218 1864L4320.5 1881.5L4445.5 1894L4193 2039V2086.5L4158 2124L4173 2181.5L4263 2239L4253 2309L4158 2339L4035.5 2401.5L3983 2359L3945.5 2401.5H3880.5L3825.5 2449L3773 2474V2529L3723 2534L3678 2491.5L3650.5 2501.5L3578 2449L3498 2491.5L3478 2449L3505.5 2366.5L3445.5 2249L3383 2211.5L3345.5 2191.5L3323 2146.5L3285.5 2136.5L3248 2056.5L3218 1974L3190.5 1906.5L3203 1881.5L3183 1841.5L3190.5 1816.5L3203 1761.5L3193 1714L3270.5 1631.5L3323 1614L3338 1536.5L3323 1464L3285.5 1436.5L3218 1399V1361.5L3183 1319H3128L3093 1241.5L3108 1184L3150.5 1121.5L3183 1079L3198 1039L3218 951.5V891.5L3203 846.5L3223 824V776.5L3198 731.5L3218 696.5L3198 624L3150.5 601.5L3168 561.5L3198 544L3183 501.5V456.5L3140.5 429L3133 406.5L3145.5 386.5L3115.5 344L3128 309L3168 276.5V251.5L3015.5 174V241.5L3003 291.5L2978 344L2988 386.5L3040.5 439V491.5L3075.5 549L3068 601.5L3088 634L3115.5 769L3145.5 811.5L3128 846.5L3145.5 874L3133 906.5L3128 939L3088 1011.5L3035.5 1114L3013 1121.5L2980.5 1166.5L2945.5 1216.5L2963 1294L3005.5 1356.5L3080.5 1406.5L3128 1444L3173 1464L3198 1504L3193 1546.5L3128 1594L3135.5 1631.5L3093 1664L3108 1701.5L3088 1749L3075.5 1816.5L3088 1881.5L3110.5 1944L3135.5 2011.5V2086.5L3100.5 2119L3063 2129L2975.5 2211.5V2249L2943 2281.5L2955.5 2331.5L2943 2371.5L2905.5 2419L2870.5 2449V2474L2913 2501.5L2930.5 2534L2848 2599L2800.5 2579L2753 2599L2713 2571.5L2685.5 2579V2644L2738 2691.5L2780.5 2724L2810.5 2776.5L2860.5 2796.5L2898 2776.5H2943L2998 2764L3045.5 2776.5L3055.5 2836.5L3118 2846.5L3155.5 2889L3190.5 2879L3218 2896.5L3260.5 2926.5L3323 2934Z" fill="#87C1D7"/>
<path d="M5430.5 714L5400.5 619L5418 574L5385.5 529L5350.5 456.5L5385.5 426.5L5350.5 376.5V324L5305.5 299L5238 261.5H5205.5L5075.5 206.5L5003 236.5L4988 186.5L4918 166.5H4753L4678 144L4598 186.5V261.5L4533 324V364L4503 394H4445.5H4320.5L4290.5 456.5H4190.5H4120.5L4068 419V456.5L4095.5 481.5L4085.5 501.5L4023 491.5L3985.5 501.5L3955.5 481.5L3923 491.5L3913 464L3865.5 481.5L3835.5 446.5L3798 426.5L3748 406.5L3730.5 376.5H3690.5L3665.5 324H3598L3558 261.5L3518 291.5L3438 221.5H3398L3370.5 201.5L3313 221.5L3278 186.5L3168 251.5V276.5L3128 309L3115.5 344L3270.5 394L3370.5 426.5L3398 406.5L3445.5 426.5L3495.5 439L3568 464L3598 491.5L3638 514H3690.5L3748 574L3913 581.5L4035.5 561.5L4078 549L4168 574H4265.5L4413 481.5L4463 501.5L4578 464L4695.5 481.5L4823 529L5111.75 574L5430.5 714Z" fill="#71635C"/>
<path fill-rule="evenodd" clip-rule="evenodd" d="M4810.5 1266.5L4805.5 1229L4753 1216.5L4723 1199L4713 1166.5L4730.5 1139L4778 1159L4833 1149L4865.5 1121.5L4853 1099L4778 1086.5L4788 1049L4820.5 1011.5L4810.5 994L4833 981.5L4915.5 1011.5H4940.5V994L4900.5 964V931.5L4950.5 881.5H5015.5L5048 911.5L5110.5 931.5L5098 981.5L5118 1011.5L5173 1019L5205.5 1039L5215.5 1086.5L5185.5 1105.01L5130.5 1121.5V1166.5L5100.5 1179L5048 1166.5H5015.5L4988 1206.5L4940.5 1251.5L4888 1274L4833 1284L4810.5 1266.5Z" fill="#CFC4CF"/>
<path d="M4805.5 1229L4810.5 1266.5L4833 1284L4888 1274L4940.5 1251.5L4988 1206.5L5015.5 1166.5H5048L5100.5 1179L5130.5 1166.5V1121.5L5185.5 1105.01L5215.5 1086.5L5205.5 1039L5173 1019L5118 1011.5L5098 981.5L5110.5 931.5L5048 911.5L5015.5 881.5H4950.5L4900.5 931.5V964L4940.5 994V1011.5H4915.5L4833 981.5L4810.5 994L4820.5 1011.5L4788 1049L4778 1086.5L4853 1099L4865.5 1121.5L4833 1149L4778 1159L4730.5 1139L4713 1166.5L4723 1199L4753 1216.5L4805.5 1229Z" fill="#87C1D7"/>
<path d="M3825.5 1139L3818 1049C3768.49 1037.48 3719.57 1035.01 3672.54 1039L3663 1105.01L3672.54 1166.5L3705.5 1196.5L3743 1216.5L3811 1284L3825.5 1139Z" fill="#CFC4CF"/>
<path d="M3388 1284L3465.5 1356.5L3578 1369L3634.25 1377.75L3690.5 1386.5H3775.5L3870.5 1350.25L3805.5 1339L3811 1284L3743 1216.5L3705.5 1196.5L3672.54 1166.5L3663 1105.01L3672.54 1039C3590.56 1045.96 3514.3 1072.54 3450.5 1105.01C3379.38 1141.2 3323.75 1184.71 3293 1216.5L3388 1284Z" fill="#CFC4CF"/>
<path d="M1010.5 1166.5L968 1134L748 1264L1028 1350.25L1173 1414L1373 1464L1388 1386.5L1298 1264H1210.5L1145.5 1216.5L1010.5 1166.5Z" fill="#71635C"/>
<path d="M1538 1444L1520.5 1546.5L1555.5 1574L1590.5 1601.5L1929.79 1476.5L1970.5 1424V1377.75L1940.5 1350.25L1858 1349L1690.5 1386.5L1608 1377.75L1538 1444Z" fill="#71635C"/>
<path d="M2828 1511.5L2945.5 1531.5L3035.5 1559L3005.5 1436.5L2828 1369L2668 1406.5C2592.17 1404 2423 1406.5 2423 1406.5L2293 1436.5L2168 1377.75L2060.5 1414L2018 1444L1970.5 1489L1923 1614H2193L2475.5 1581.5L2685.5 1531.5L2828 1511.5Z" fill="#71635C"/>
<path d="M2810.5 2776.5L2780.5 2724L2738 2691.5L2685.5 2644V2579L2713 2571.5L2753 2599L2800.5 2579L2848 2599L2930.5 2534L2913 2501.5L2870.5 2474V2449L2905.5 2419L2943 2371.5L2955.5 2331.5L2943 2281.5L2975.5 2249C2954.67 2244.83 2910 2236.5 2898 2236.5C2886 2236.5 2789.67 2244.83 2743 2249L2623 2321.5L2530.5 2344L2448 2419L2383 2501.5L2300.5 2561.5L2383 2579L2435.5 2644L2475.5 2724L2530.5 2756.5L2585.5 2764L2640.5 2781.5L2738 2776.5H2810.5Z" fill="#71635C"/>
<path d="M1648 211.5L1628 161.5H1595.5L1555.5 176.5L1523 201.5L1478 219H1443L1406.97 211.5L1345.5 231.5L1310.5 254L1288 264L1245.5 276.5L1210.5 309L1200.5 356.5L1165.5 381.5H1128L1108 409L1088 454L1108 491.5L1065.5 516.5L1053 551.5L1010.5 566.5L968 624L975.5 659L968 726.5C948 741.5 905.5 773.5 895.5 781.5C885.5 789.5 834.667 816.5 810.5 829L818 891.5L810.5 981.5L795.5 1034L760.5 1079L705.5 1101.5L610.5 1109L580.5 1134L545.5 1146.5L523 1174L495.5 1186.5L458 1224C512.167 1247.33 624.5 1294 640.5 1294C646.666 1294 656.744 1290.04 669.617 1284.98L669.618 1284.98C690.146 1276.91 717.783 1266.05 748 1264L968 1134L1060.5 1029V924L1233 626.5L1345.5 479L1423 369L1550.5 309L1660.5 286.5L1648 211.5Z" fill="#B7EA9C"/>
<path d="M923 2419C921 2421 870.5 2429.83 845.5 2434V2474L835.5 2514L795.5 2561.5L768 2606.5L723 2644L690.5 2681.5L640.5 2694L598 2706.5V2736.5L515.5 2779V2806.5L470.5 2834L428 2864L400.5 2894L390.5 2931.5L400.5 2964L363 3016.5L330.5 3046.5L300.5 3096.5L295.5 3134L265.5 3181.5L240.5 3221.5L188 3256.5L168 3311.5L138 3339L110.5 3381.5L103 3431.5L110.5 3474L153 3509L178 3544L250.5 3554L278 3569L370.5 3531.5L503 3569L568 3559L653 3521.5L695.5 3509L735.5 3461.5L743 3431.5L823 3361.5L880.5 3311.5L928 3276.5L950.5 3231.5L998 3209L1050.5 3186.5L1083 3164L1143 3116.5L1193 3121.5L1308 3016.5L1365.5 2959L1430.5 2946.5L1463 2876.5L1550.5 2824L1585.5 2769L1655.5 2734L1683 2666.5L1735.5 2621.5L1690.5 2571.5L1638 2579L1590.5 2599H1550.5L1505.5 2616.5L1468 2644H1423L1453 2599V2561.5L1480.5 2534L1493 2474L1520.5 2449L1480.5 2419H1453L1423 2409L1388 2394L1330.5 2409L1298 2419V2394L1343 2371.5L1330.5 2341.5L1283 2331.5H1260.5L1223 2351.5L1208 2314V2249L1180.5 2241.5L1125.5 2244L1100.5 2221.5L1068 2241.5V2264L1045.5 2296.5L1003 2276.5L980.5 2291.5L990.5 2324L965.5 2351.5L973 2394H940.5C935.5 2401.5 925 2417 923 2419Z" fill="#87C1D7"/>
<path d="M2975.5 2249V2211.5L3063 2129L3100.5 2119L3135.5 2086.5V2011.5L3110.5 1944L3088 1881.5L3075.5 1816.5L3088 1749L3108 1701.5L3093 1664L3135.5 1631.5L3128 1594L3035.5 1559L2945.5 1531.5L2828 1511.5L2685.5 1531.5L2475.5 1581.5L2193 1614H1923L1983 1686.5L1999.84 1761.5V1851.5L1940.5 1944L1878 1991.5L1823 2086.5L1765.5 2136.5L1730.5 2221.5L1673 2264V2341.5L1690.5 2394L1713 2501.5L1780.5 2589L1813 2579L1830.5 2561.5L1855.5 2579H1875.5L1885.5 2604H1923L1940.5 2644L1978 2616.5H2015.5L2040.5 2621.5L2065.5 2604L2105.5 2616.5H2148L2173 2604L2185.5 2566.5L2235.5 2561.5H2300.5L2383 2501.5L2448 2419L2530.5 2344L2623 2321.5L2743 2249C2789.67 2244.83 2886 2236.5 2898 2236.5C2910 2236.5 2954.67 2244.83 2975.5 2249Z" fill="#B7EA9C"/>
<path d="M2988 386.5L2978 344L3003 291.5L3015.5 241.5V174L2978 161.5L2955.5 174L2893 201.5L2855.5 211.5L2823 234L2778 221.5L2728 211.5V234H2595.5L2540.5 261.5H2515.5H2405.5L2393 234H2375.5V269C2369.67 271.5 2356.5 276.5 2350.5 276.5C2344.5 276.5 2339.67 266.5 2338 261.5L2328 276.5H2305.5L2285.5 286.5L2215.5 276.5V241.5L2178 269L2145.5 299L2045.5 286.5L2018 261.5L1970.5 251.5L1955.5 211.5L1923 186.5L1853 201.5L1843 174L1818 161.5L1790.5 174L1778 154L1803 299L1930.5 364L2118 394L2278 386.5L2430.5 356.5H2565.5H2713L2840.5 386.5H2988Z" fill="#71635C"/>
<path fill-rule="evenodd" clip-rule="evenodd" d="M4950.5 1771.5V1724L4978 1671.5V1581.5L4950.5 1549L5100.5 1319L5205.5 1229H5238L5270.5 1179H5305.5L5350.5 1099L5430.5 1041.5L5468 974V906.5V856.5L5455.5 789L5430.5 714L5111.75 574L4823 529L4695.5 481.5L4578 464L4463 501.5L4413 481.5L4265.5 574H4168L4078 549L4035.5 561.5L3913 581.5L3748 574L3713 731.5L3625.5 834L3445.5 906.5L3323 951.5L3353 1011.5L3578 951.5L3713 924L3818 1011.5L3923 1099L4095.5 1274L4105.5 1369L4080.5 1499L4050.5 1671.5V1836.5L4080.5 1994L4035.5 2104L3913 2181.5L3713 2124L3558 2066.5L3450.5 2171.5L3445.5 2249L3505.5 2366.5L3478 2449L3498 2491.5L3578 2449L3650.5 2501.5L3678 2491.5L3723 2534L3773 2529V2474L3825.5 2449L3880.5 2401.5H3945.5L3983 2359L4035.5 2401.5L4158 2339L4253 2309L4263 2239L4173 2181.5L4158 2124L4193 2086.5V2039L4445.5 1894L4320.5 1881.5L4218 1864L4143 1906.5V1836.5L4205.5 1791.5L4228 1761.5H4290.5L4335.5 1659L4425.5 1614H4503L4578 1659L4643 1724L4713 1791.5L4826 1749L4950.5 1771.5ZM4810.5 1266.5L4805.5 1229L4753 1216.5L4723 1199L4713 1166.5L4730.5 1139L4778 1159L4833 1149L4865.5 1121.5L4853 1099L4778 1086.5L4788 1049L4820.5 1011.5L4810.5 994L4833 981.5L4915.5 1011.5H4940.5V994L4900.5 964V931.5L4950.5 881.5H5015.5L5048 911.5L5110.5 931.5L5098 981.5L5118 1011.5L5173 1019L5205.5 1039L5215.5 1086.5L5185.5 1105.01L5130.5 1121.5V1166.5L5100.5 1179L5048 1166.5H5015.5L4988 1206.5L4940.5 1251.5L4888 1274L4833 1284L4810.5 1266.5Z" fill="#B7EA9C"/>
<path d="M4015.5 1386.5L3935.5 1361.5L3870.5 1350.25L3775.5 1386.5H3690.5L3634.25 1377.75L3578 1369L3465.5 1356.5L3478 1414V1531.5L3465.5 1614L3428 1724L3383 1816.5L3365.5 1894L3450.5 1934H3505.5L3558 1894L3625.5 1881.5L3713 1934L3733 1958.44L3758 1989L3805.5 2066.5L3865.5 2124L3968 2104L4008 2029L4035.5 1961.5L4015.5 1894L3945.5 1816.5L3918 1749L3945.5 1699L3935.5 1659L3918 1591.5L3968 1549L4025.5 1491.5L4035.5 1436.5L4015.5 1386.5Z" fill="#CFC4CF"/>
<path fill-rule="evenodd" clip-rule="evenodd" d="M1075.5 2101.5H1190.5L1298 2169V2104L1378 2051.5L1480.5 1991.5L1520.5 1904L1538 1816.5L1550.5 1711.5L1486.75 1674L1423 1636.5L1298 1701.5L1208 1831.5L1190.5 1921.5L1090.5 2044L1075.5 2101.5Z" fill="#71635C"/>
<path d="M580.5 2101.5L665.5 2061.5L815.5 2086.5L908 2079H980.5L1004.25 2061.5L990.5 1961.5L940.5 1921.5L880.5 1904H825.5L768 1891.02L748 1886.5L690.5 1879H598L530.5 1844L489.366 1831.5L445.5 2016.5L458 2061.5L580.5 2101.5Z" fill="#CFC4CF"/>
<path d="M1929.79 1476.5L1590.5 1601.5L1555.5 1574L1500.1 1614L1486.75 1674L1550.5 1711.5L1538 1816.5L1520.5 1904L1480.5 1991.5L1378 2051.5L1298 2104V2169L1208 2249V2314L1223 2351.5L1260.5 2331.5H1283L1330.5 2341.5L1343 2371.5L1298 2394V2419L1330.5 2409L1388 2394L1423 2409L1453 2419H1480.5L1520.5 2449L1493 2474L1480.5 2534L1453 2561.5V2599L1423 2644H1468L1505.5 2616.5L1550.5 2599H1590.5L1638 2579L1690.5 2571.5L1735.5 2621.5L1780.5 2589L1713 2501.5L1690.5 2394L1673 2341.5V2264L1730.5 2221.5L1765.5 2136.5L1823 2086.5L1878 1991.5L1940.5 1944L1999.84 1851.5V1761.5L1983 1686.5L1923 1614L1970.5 1489L1929.79 1476.5Z" fill="#25AF49"/>
<path fill-rule="evenodd" clip-rule="evenodd" d="M3128 1594L3193 1546.5L3198 1504L3173 1464L3128 1444L3080.5 1406.5L3005.5 1356.5L2963 1294L2945.5 1216.5L2980.5 1166.5L3013 1121.5L3035.5 1114L3088 1011.5L3128 939L3133 906.5L3145.5 874L3128 846.5L3145.5 811.5L3115.5 769L3088 634L3068 601.5L3075.5 549L3040.5 491.5V439L2988 386.5H2840.5L2713 356.5H2565.5H2430.5L2278 386.5L2118 394L1930.5 364L1803 299L1778 154L1723 144L1660.5 161.5H1628L1648 211.5L1660.5 286.5L1550.5 309L1423 369L1345.5 479L1233 626.5L1060.5 924V1029L968 1134L1010.5 1166.5L1145.5 1216.5L1210.5 1264H1298L1388 1386.5L1373 1464L1173 1414L1028 1350.25L748 1264C717.783 1266.05 690.146 1276.91 669.618 1284.98L669.617 1284.98C656.744 1290.04 646.666 1294 640.5 1294C624.5 1294 512.167 1247.33 458 1224L413 1241.5L393 1284L355.5 1319L283 1364L230.5 1374L208 1414L200.5 1471.5L220.5 1564L243 1636.5L263 1686.5L270.5 1749L263 1814V1859L293 1904L315.5 1934L300.5 1991.5L308 2061.5L330.5 2124L408 2199L475.5 2189H540.5L598 2209H665.5L733 2221.5H785.5L808 2241.5H835.5L845.5 2276.5V2314L860.5 2341.5L845.5 2434C870.5 2429.83 921 2421 923 2419C925 2417 935.5 2401.5 940.5 2394H973L965.5 2351.5L990.5 2324L980.5 2291.5L1003 2276.5L1045.5 2296.5L1068 2264V2241.5L1100.5 2221.5L1125.5 2244L1180.5 2241.5L1208 2249L1298 2169L1190.5 2101.5H1075.5L1090.5 2044L1190.5 1921.5L1208 1831.5L1298 1701.5L1423 1636.5L1486.75 1674L1500.1 1614L1555.5 1574L1520.5 1546.5L1538 1444L1608 1377.75L1690.5 1386.5L1858 1349L1940.5 1350.25L1970.5 1377.75V1424L1929.79 1476.5L1970.5 1489L2018 1444L2060.5 1414L2168 1377.75L2293 1436.5L2423 1406.5C2423 1406.5 2592.17 1404 2668 1406.5L2828 1369L3005.5 1436.5L3035.5 1559L3128 1594ZM1450.5 501.5L1523 491.5L1560.5 479H1628L1660.5 501.5L1690.5 561.5L1723 589L1853 567.657L1890.5 561.5H2078H2193L2253 456.5L2308 406.5H2405.5L2503 386.5L2523 379H2595.5L2668 394L2750.5 406.5L2889.2 674L2925.5 744V799L2893 874L2855.5 1001.5L2778 1099L2648 1264L2540.5 1294L1983 1306.5L1915.5 1224L2045.5 1154L2145.5 1114L2215.5 1064V1011.5L2178 961.5L2045.5 924L1843 874L1803 866.5L1763 859L1723 836.5H1578H1413L1330.5 874L1298 891.5H1253L1243 859L1406.97 576.5L1450.5 501.5ZM665.5 2061.5L580.5 2101.5L458 2061.5L445.5 2016.5L489.366 1831.5L503 1774L475.5 1734L393 1686.5L315.5 1659L330.5 1564L340.5 1494L408 1444L530.5 1414L598 1444L640.5 1514L733 1546.5H825.5L940.5 1494L979.071 1471.5L1060.5 1424L1090.5 1414L1133 1464L1210.5 1526.5L1273 1564L1298 1601.5L1283 1659L1133 1791.5V1869L1139.06 1904L1090.5 1991.5L1028 2044L1004.25 2061.5L980.5 2079H908L815.5 2086.5L665.5 2061.5Z" fill="#F8FFEF"/>
<path d="M1090.5 1414L1060.5 1424L979.071 1471.5L990.5 1534L895.5 1614L880.5 1686.5L835.5 1721.5L808 1814L768 1891.02L825.5 1904H880.5L940.5 1921.5L990.5 1961.5L1004.25 2061.5L1028 2044L1090.5 1991.5L1139.06 1904L1133 1869V1791.5L1283 1659L1298 1601.5L1273 1564L1210.5 1526.5L1133 1464L1090.5 1414Z" fill="#CFC4CF"/>
<path d="M475.5 1734L503 1774L489.366 1831.5L530.5 1844L598 1879H690.5L748 1886.5L768 1891.02L808 1814L835.5 1721.5L880.5 1686.5L895.5 1614L990.5 1534L979.071 1471.5L940.5 1494L825.5 1546.5H733L640.5 1514L593 1556.5L558 1636.5L518 1686.5L475.5 1734Z" fill="#CFC4CF"/>
<path d="M393 1686.5L475.5 1734L518 1686.5L558 1636.5L593 1556.5L640.5 1514L598 1444L530.5 1414L408 1444L340.5 1494L330.5 1564L315.5 1659L393 1686.5Z" fill="#CFC4CF"/>
<path d="M1723 836.5L1763 859L1803 866.5L1750.5 799L1733 769L1790.5 696.5L1843 656.5L1868 601.5L1853 567.657L1723 589L1628 614L1550.5 624L1478 614L1406.97 576.5L1243 859L1253 891.5H1298L1330.5 874L1413 836.5H1578H1723Z" fill="#CFC4CF"/>
<path d="M1523 491.5L1450.5 501.5L1406.97 576.5L1478 614L1550.5 624L1628 614L1723 589L1690.5 561.5L1660.5 501.5L1628 479H1560.5L1523 491.5Z" fill="#CFC4CF"/>
<path fill-rule="evenodd" clip-rule="evenodd" d="M768 1891.02L748 1886.5L690.5 1879H598L530.5 1844L489.366 1831.5L445.5 2016.5L458 2061.5L580.5 2101.5L665.5 2061.5L815.5 2086.5L908 2079H980.5L1004.25 2061.5L990.5 1961.5L940.5 1921.5L880.5 1904H825.5L768 1891.02Z" fill="#CFC4CF"/>
<path d="M2078 561.5H1890.5L1853 567.657L1868 601.5L1843 656.5L1790.5 696.5L1733 769L1750.5 799L1803 866.5L1843 874L2045.5 924L2178 961.5L2215.5 1011.5V1064L2145.5 1114L2045.5 1154L1915.5 1224L1983 1306.5L2540.5 1294L2648 1264L2778 1099L2855.5 1001.5L2893 874L2925.5 799V744L2889.2 674L2750.5 406.5L2668 394L2595.5 379H2523L2503 386.5L2405.5 406.5H2308L2253 456.5L2193 561.5H2078Z" fill="#CFC4CF"/>
<path d="M3323 2934L3518 2846.5H3555.5L3575.5 2776.5H3620.5L3710.5 2716.5H3753L3815.5 2741.5L3825.5 2651.5L3923 2501.5H3973L4035.5 2516.5H4080.5L4118 2501.5L4158 2474H4193L4218 2436.5L4290.5 2424L4385.5 2436.5L4410.5 2449L4445.5 2424L4485.5 2436.5L4533 2339L4675.5 2309L4700.5 2284L4855.5 2309L4893 2264L4870.5 2146.5L4795.5 2124L4738 2066.5V2014L4700.5 1974L4753 1894V1864L4713 1791.5M3323 2934L3575.5 3004L3605.5 2959H3670.5L3693 2991.5L3710.5 2959L3740.5 2971.5H3783L3825.5 2879L3883 2881.5L3923 2809L4050.5 2776.5L4118 2829L4158 2881.5L4193 2901.5L4298 2991.5L4358 3004L4443 3091.5L4555.5 3169L4650.5 3136.5L4740.5 3169L4908 3154L5020.5 3136.5L5115.5 3111.5L5203 3059L5263 2991.5V2934L5283 2881.5L5263 2846.5L5283 2776.5L5360.5 2756.5L5433 2689L5455.5 2589L5360.5 2529L5330.5 2449H5283L5263 2424L5225.5 2389L5203 2339L5093 2329L5055.5 2249L5100.5 2146.5L5075.5 2104V1994V1946.5L5003 1894L4988 1836.5L4950.5 1771.5M3323 2934L3260.5 2926.5L3218 2896.5L3190.5 2879L3155.5 2889L3118 2846.5L3055.5 2836.5L3045.5 2776.5L2998 2764L2943 2776.5H2898L2860.5 2796.5L2810.5 2776.5M4713 1791.5L4643 1724L4578 1659L4503 1614H4425.5L4335.5 1659L4290.5 1761.5H4228L4205.5 1791.5L4143 1836.5V1906.5L4218 1864L4320.5 1881.5L4445.5 1894L4193 2039V2086.5L4158 2124L4173 2181.5L4263 2239L4253 2309L4158 2339L4035.5 2401.5L3983 2359L3945.5 2401.5H3880.5L3825.5 2449L3773 2474V2529L3723 2534L3678 2491.5L3650.5 2501.5L3578 2449L3498 2491.5L3478 2449L3505.5 2366.5L3445.5 2249M4713 1791.5L4826 1749L4950.5 1771.5M4950.5 1771.5V1724L4978 1671.5V1581.5L4950.5 1549L5100.5 1319L5205.5 1229H5238L5270.5 1179H5305.5L5350.5 1099L5430.5 1041.5L5468 974V906.5V856.5L5455.5 789L5430.5 714M5430.5 714L5400.5 619L5418 574L5385.5 529L5350.5 456.5L5385.5 426.5L5350.5 376.5V324L5305.5 299L5238 261.5H5205.5L5075.5 206.5L5003 236.5L4988 186.5L4918 166.5H4753L4678 144L4598 186.5V261.5L4533 324V364L4503 394H4445.5H4320.5L4290.5 456.5H4190.5H4120.5L4068 419V456.5L4095.5 481.5L4085.5 501.5L4023 491.5L3985.5 501.5L3955.5 481.5L3923 491.5L3913 464L3865.5 481.5L3835.5 446.5L3798 426.5L3748 406.5L3730.5 376.5H3690.5L3665.5 324H3598L3558 261.5L3518 291.5L3438 221.5H3398L3370.5 201.5L3313 221.5L3278 186.5L3168 251.5M5430.5 714L5111.75 574L4823 529L4695.5 481.5L4578 464L4463 501.5L4413 481.5L4265.5 574H4168L4078 549L4035.5 561.5L3913 581.5L3748 574M3748 574L3713 731.5L3625.5 834L3445.5 906.5L3323 951.5L3353 1011.5L3578 951.5L3713 924L3818 1011.5L3923 1099L4095.5 1274L4105.5 1369L4080.5 1499L4050.5 1671.5V1836.5L4080.5 1994L4035.5 2104L3913 2181.5L3713 2124L3558 2066.5L3450.5 2171.5L3445.5 2249M3748 574L3690.5 514H3638M3445.5 2249L3383 2211.5L3345.5 2191.5L3323 2146.5L3285.5 2136.5L3248 2056.5L3218 1974L3190.5 1906.5L3203 1881.5L3183 1841.5L3190.5 1816.5L3203 1761.5L3193 1714L3270.5 1631.5L3323 1614L3338 1536.5L3323 1464L3285.5 1436.5L3218 1399V1361.5L3183 1319H3128L3093 1241.5L3108 1184L3150.5 1121.5L3183 1079L3198 1039L3218 951.5V891.5L3203 846.5L3223 824V776.5L3198 731.5L3218 696.5L3198 624L3150.5 601.5L3168 561.5L3198 544L3183 501.5V456.5L3140.5 429L3133 406.5L3145.5 386.5L3115.5 344M3168 251.5V276.5L3128 309L3115.5 344M3168 251.5L3015.5 174M3115.5 344L3270.5 394L3370.5 426.5M3370.5 426.5L3398 406.5L3445.5 426.5L3495.5 439L3568 464L3598 491.5L3638 514M3370.5 426.5L3310.5 481.5V509L3283 539L3323 574H3353L3405.5 526.5H3480.5L3530.5 549L3543 581.5L3590.5 606.5L3598 646.5L3578 686.5L3500.5 706.5L3405.5 721.5L3358 711.5L3323 696.5L3283 721.5L3298 759L3343 796.5L3428 811.5H3530.5L3613 769H3638L3690.5 686.5L3703 606.5L3690.5 554L3665.5 526.5L3638 514M3465.5 1356.5L3478 1414V1531.5L3465.5 1614L3428 1724L3383 1816.5L3365.5 1894L3450.5 1934H3505.5L3558 1894L3625.5 1881.5L3713 1934L3733 1958.44L3758 1989L3805.5 2066.5L3865.5 2124L3968 2104L4008 2029L4035.5 1961.5L4015.5 1894L3945.5 1816.5L3918 1749L3945.5 1699L3935.5 1659L3918 1591.5L3968 1549L4025.5 1491.5L4035.5 1436.5L4015.5 1386.5L3935.5 1361.5L3870.5 1350.25M3465.5 1356.5L3388 1284L3293 1216.5C3323.75 1184.71 3379.38 1141.2 3450.5 1105.01C3514.3 1072.54 3590.56 1045.96 3672.54 1039M3465.5 1356.5L3578 1369L3634.25 1377.75L3690.5 1386.5H3775.5L3870.5 1350.25M2810.5 2776.5L2780.5 2724L2738 2691.5L2685.5 2644V2579L2713 2571.5L2753 2599L2800.5 2579L2848 2599L2930.5 2534L2913 2501.5L2870.5 2474V2449L2905.5 2419L2943 2371.5L2955.5 2331.5L2943 2281.5L2975.5 2249M2810.5 2776.5H2738L2640.5 2781.5L2585.5 2764L2530.5 2756.5L2475.5 2724L2435.5 2644L2383 2579L2300.5 2561.5M2975.5 2249V2211.5L3063 2129L3100.5 2119L3135.5 2086.5V2011.5L3110.5 1944L3088 1881.5L3075.5 1816.5L3088 1749L3108 1701.5L3093 1664L3135.5 1631.5L3128 1594M2975.5 2249C2954.67 2244.83 2910 2236.5 2898 2236.5C2886 2236.5 2789.67 2244.83 2743 2249L2623 2321.5L2530.5 2344L2448 2419L2383 2501.5L2300.5 2561.5M3128 1594L3193 1546.5L3198 1504L3173 1464L3128 1444L3080.5 1406.5L3005.5 1356.5L2963 1294L2945.5 1216.5L2980.5 1166.5L3013 1121.5L3035.5 1114L3088 1011.5L3128 939L3133 906.5L3145.5 874L3128 846.5L3145.5 811.5L3115.5 769L3088 634L3068 601.5L3075.5 549L3040.5 491.5V439L2988 386.5M3128 1594L3035.5 1559M2988 386.5L2978 344L3003 291.5L3015.5 241.5V174M2988 386.5H2840.5L2713 356.5H2565.5H2430.5L2278 386.5L2118 394L1930.5 364L1803 299L1778 154M3015.5 174L2978 161.5L2955.5 174L2893 201.5L2855.5 211.5L2823 234L2778 221.5L2728 211.5V234H2595.5L2540.5 261.5H2515.5H2405.5L2393 234H2375.5V269C2369.67 271.5 2356.5 276.5 2350.5 276.5C2344.5 276.5 2339.67 266.5 2338 261.5L2328 276.5H2305.5L2285.5 286.5L2215.5 276.5V241.5L2178 269L2145.5 299L2045.5 286.5L2018 261.5L1970.5 251.5L1955.5 211.5L1923 186.5L1853 201.5L1843 174L1818 161.5L1790.5 174L1778 154M3672.54 1039C3719.57 1035.01 3768.49 1037.48 3818 1049L3825.5 1139L3811 1284M3672.54 1039L3663 1105.01L3672.54 1166.5L3705.5 1196.5L3743 1216.5L3811 1284M3811 1284L3805.5 1339L3870.5 1350.25M1778 154L1723 144L1660.5 161.5H1628M1923 1614H2193L2475.5 1581.5L2685.5 1531.5L2828 1511.5L2945.5 1531.5L3035.5 1559M1923 1614L1970.5 1489M1923 1614L1983 1686.5L1999.84 1761.5V1851.5L1940.5 1944L1878 1991.5L1823 2086.5L1765.5 2136.5L1730.5 2221.5L1673 2264V2341.5L1690.5 2394L1713 2501.5L1780.5 2589M3035.5 1559L3005.5 1436.5L2828 1369L2668 1406.5C2592.17 1404 2423 1406.5 2423 1406.5L2293 1436.5L2168 1377.75L2060.5 1414L2018 1444L1970.5 1489M1723 589L1690.5 561.5L1660.5 501.5L1628 479H1560.5L1523 491.5L1450.5 501.5L1406.97 576.5M1723 589L1628 614L1550.5 624L1478 614L1406.97 576.5M1723 589L1853 567.657M1406.97 576.5L1243 859L1253 891.5H1298L1330.5 874L1413 836.5H1578H1723L1763 859L1803 866.5M1803 866.5L1843 874L2045.5 924L2178 961.5L2215.5 1011.5V1064L2145.5 1114L2045.5 1154L1915.5 1224L1983 1306.5L2540.5 1294L2648 1264L2778 1099L2855.5 1001.5L2893 874L2925.5 799V744L2889.2 674L2750.5 406.5L2668 394L2595.5 379H2523L2503 386.5L2405.5 406.5H2308L2253 456.5L2193 561.5H2078H1890.5L1853 567.657M1803 866.5L1750.5 799L1733 769L1790.5 696.5L1843 656.5L1868 601.5L1853 567.657M1628 161.5L1648 211.5L1660.5 286.5L1550.5 309L1423 369L1345.5 479L1233 626.5L1060.5 924V1029L968 1134M1628 161.5H1595.5L1555.5 176.5L1523 201.5L1478 219H1443L1406.97 211.5L1345.5 231.5L1310.5 254L1288 264L1245.5 276.5L1210.5 309L1200.5 356.5L1165.5 381.5H1128L1108 409L1088 454L1108 491.5L1065.5 516.5L1053 551.5L1010.5 566.5L968 624L975.5 659L968 726.5C948 741.5 905.5 773.5 895.5 781.5C885.5 789.5 834.667 816.5 810.5 829L818 891.5L810.5 981.5L795.5 1034L760.5 1079L705.5 1101.5L610.5 1109L580.5 1134L545.5 1146.5L523 1174L495.5 1186.5L458 1224M968 1134L1010.5 1166.5L1145.5 1216.5L1210.5 1264H1298L1388 1386.5L1373 1464L1173 1414L1028 1350.25L748 1264M968 1134L748 1264M748 1264C717.783 1266.05 690.146 1276.91 669.618 1284.98L669.617 1284.98C656.744 1290.04 646.666 1294 640.5 1294C624.5 1294 512.167 1247.33 458 1224M458 1224L413 1241.5L393 1284L355.5 1319L283 1364L230.5 1374L208 1414L200.5 1471.5L220.5 1564L243 1636.5L263 1686.5L270.5 1749L263 1814V1859L293 1904L315.5 1934L300.5 1991.5L308 2061.5L330.5 2124L408 2199L475.5 2189H540.5L598 2209H665.5L733 2221.5H785.5L808 2241.5H835.5L845.5 2276.5V2314L860.5 2341.5L845.5 2434M845.5 2434C870.5 2429.83 921 2421 923 2419C925 2417 935.5 2401.5 940.5 2394H973L965.5 2351.5L990.5 2324L980.5 2291.5L1003 2276.5L1045.5 2296.5L1068 2264V2241.5L1100.5 2221.5L1125.5 2244L1180.5 2241.5L1208 2249M845.5 2434V2474L835.5 2514L795.5 2561.5L768 2606.5L723 2644L690.5 2681.5L640.5 2694L598 2706.5V2736.5L515.5 2779V2806.5L470.5 2834L428 2864L400.5 2894L390.5 2931.5L400.5 2964L363 3016.5L330.5 3046.5L300.5 3096.5L295.5 3134L265.5 3181.5L240.5 3221.5L188 3256.5L168 3311.5L138 3339L110.5 3381.5L103 3431.5L110.5 3474L153 3509L178 3544L250.5 3554L278 3569L370.5 3531.5L503 3569L568 3559L653 3521.5L695.5 3509L735.5 3461.5L743 3431.5L823 3361.5L880.5 3311.5L928 3276.5L950.5 3231.5L998 3209L1050.5 3186.5L1083 3164L1143 3116.5L1193 3121.5L1308 3016.5L1365.5 2959L1430.5 2946.5L1463 2876.5L1550.5 2824L1585.5 2769L1655.5 2734L1683 2666.5L1735.5 2621.5M475.5 1734L503 1774L489.366 1831.5M475.5 1734L393 1686.5L315.5 1659L330.5 1564L340.5 1494L408 1444L530.5 1414L598 1444L640.5 1514M475.5 1734L518 1686.5L558 1636.5L593 1556.5L640.5 1514M640.5 1514L733 1546.5H825.5L940.5 1494L979.071 1471.5M489.366 1831.5L445.5 2016.5L458 2061.5L580.5 2101.5L665.5 2061.5L815.5 2086.5L908 2079H980.5L1004.25 2061.5M489.366 1831.5L530.5 1844L598 1879H690.5L748 1886.5L768 1891.02M1004.25 2061.5L1028 2044L1090.5 1991.5L1139.06 1904L1133 1869V1791.5L1283 1659L1298 1601.5L1273 1564L1210.5 1526.5L1133 1464L1090.5 1414L1060.5 1424L979.071 1471.5M1004.25 2061.5L990.5 1961.5L940.5 1921.5L880.5 1904H825.5L768 1891.02M768 1891.02L808 1814L835.5 1721.5L880.5 1686.5L895.5 1614L990.5 1534L979.071 1471.5M1929.79 1476.5L1590.5 1601.5L1555.5 1574M1929.79 1476.5L1970.5 1489M1929.79 1476.5L1970.5 1424V1377.75L1940.5 1350.25L1858 1349L1690.5 1386.5L1608 1377.75L1538 1444L1520.5 1546.5L1555.5 1574M1208 2249V2314L1223 2351.5L1260.5 2331.5H1283L1330.5 2341.5L1343 2371.5L1298 2394V2419L1330.5 2409L1388 2394L1423 2409L1453 2419H1480.5L1520.5 2449L1493 2474L1480.5 2534L1453 2561.5V2599L1423 2644H1468L1505.5 2616.5L1550.5 2599H1590.5L1638 2579L1690.5 2571.5L1735.5 2621.5M1208 2249L1298 2169M1298 2169V2104L1378 2051.5L1480.5 1991.5L1520.5 1904L1538 1816.5L1550.5 1711.5L1486.75 1674M1298 2169L1190.5 2101.5H1075.5L1090.5 2044L1190.5 1921.5L1208 1831.5L1298 1701.5L1423 1636.5L1486.75 1674M1735.5 2621.5L1780.5 2589M1780.5 2589L1813 2579L1830.5 2561.5L1855.5 2579H1875.5L1885.5 2604H1923L1940.5 2644L1978 2616.5H2015.5L2040.5 2621.5L2065.5 2604L2105.5 2616.5H2148L2173 2604L2185.5 2566.5L2235.5 2561.5H2300.5M1486.75 1674L1500.1 1614L1555.5 1574M4805.5 1229L4810.5 1266.5L4833 1284L4888 1274L4940.5 1251.5L4988 1206.5L5015.5 1166.5H5048L5100.5 1179L5130.5 1166.5V1121.5L5185.5 1105.01L5215.5 1086.5L5205.5 1039L5173 1019L5118 1011.5L5098 981.5L5110.5 931.5L5048 911.5L5015.5 881.5H4950.5L4900.5 931.5V964L4940.5 994V1011.5H4915.5L4833 981.5L4810.5 994L4820.5 1011.5L4788 1049L4778 1086.5L4853 1099L4865.5 1121.5L4833 1149L4778 1159L4730.5 1139L4713 1166.5L4723 1199L4753 1216.5L4805.5 1229Z" stroke="black" stroke-width="5"/>
</g>
<path d="M2968.96 0C2968.96 0 2797.53 68.9594 2816.46 117.75C2831.49 156.491 3011.2 154.304 3016.71 201.25L3049.21 251.75L3129.46 288.5L3168.21 280.75C3185.9 221.903 3295.21 172.25 3395.71 194.25C3496.21 216.25 3606.21 113 3606.21 113L2968.96 0Z" fill="#87C1D7"/>
<defs>
<filter id="filter0_dd_47_19" x="0.46875" y="141.31" width="5495.03" height="3490.45" filterUnits="userSpaceOnUse" color-interpolation-filters="sRGB">
<feFlood flood-opacity="0" result="BackgroundImageFix"/>
<feColorMatrix in="SourceAlpha" type="matrix" values="0 0 0 0 0 0 0 0 0 0 0 0 0 0 0 0 0 0 127 0" result="hardAlpha"/>
<feOffset dx="-100" dy="60"/>
<feComposite in2="hardAlpha" operator="out"/>
<feColorMatrix type="matrix" values="0 0 0 0 0 0 0 0 0 0 0 0 0 0 0 0 0 0 1 0"/>
<feBlend mode="normal" in2="BackgroundImageFix" result="effect1_dropShadow_47_19"/>
<feColorMatrix in="SourceAlpha" type="matrix" values="0 0 0 0 0 0 0 0 0 0 0 0 0 0 0 0 0 0 127 0" result="hardAlpha"/>
<feOffset dx="25" dy="50"/>
<feComposite in2="hardAlpha" operator="out"/>
<feColorMatrix type="matrix" values="0 0 0 0 0 0 0 0 0 0 0 0 0 0 0 0 0 0 1 0"/>
<feBlend mode="normal" in2="effect1_dropShadow_47_19" result="effect2_dropShadow_47_19"/>
<feBlend mode="normal" in="SourceGraphic" in2="effect2_dropShadow_47_19" result="shape"/>
</filter>
</defs>
</svg>
