<svg width="20" height="20" viewBox="0 0 20 20" fill="none" xmlns="http://www.w3.org/2000/svg">
<path d="M9.4 16.161L16.796 8.765C15.5518 8.24522 14.4218 7.4862 13.47 6.531C12.5143 5.57905 11.755 4.44865 11.235 3.204L3.839 10.6C3.262 11.177 2.973 11.466 2.725 11.784C2.4324 12.1595 2.18127 12.5655 1.976 12.995C1.803 13.359 1.674 13.747 1.416 14.521L0.0540037 18.604C-0.00868258 18.7909 -0.017983 18.9917 0.0271475 19.1836C0.072278 19.3756 0.170051 19.5511 0.309475 19.6905C0.4489 19.83 0.624449 19.9277 0.816391 19.9729C1.00833 20.018 1.20906 20.0087 1.396 19.946L5.479 18.584C6.254 18.326 6.641 18.197 7.005 18.024C7.43634 17.8187 7.84 17.569 8.216 17.275C8.534 17.027 8.823 16.738 9.4 16.161ZM18.848 6.713C19.5854 5.97557 19.9997 4.97539 19.9997 3.9325C19.9997 2.88961 19.5854 1.88943 18.848 1.152C18.1106 0.414566 17.1104 0.000279196 16.0675 0.000279188C15.0246 0.00027918 14.0244 0.414566 13.287 1.152L12.4 2.039L12.438 2.15C12.875 3.40078 13.5903 4.53599 14.53 5.47C15.4919 6.43782 16.6669 7.16724 17.961 7.6L18.848 6.713Z" fill="white"/>
</svg>
