<svg width="16" height="10" viewBox="0 0 16 10" fill="none" xmlns="http://www.w3.org/2000/svg">
<path fill-rule="evenodd" clip-rule="evenodd" d="M6.94 0.94C7.22125 0.659099 7.6025 0.50132 8 0.50132C8.3975 0.50132 8.77875 0.659099 9.06 0.94L14.718 6.596C14.8573 6.73533 14.9677 6.90073 15.0431 7.08275C15.1184 7.26477 15.1572 7.45985 15.1571 7.65685C15.1571 7.85385 15.1182 8.04891 15.0428 8.2309C14.9674 8.41289 14.8568 8.57823 14.7175 8.7175C14.5782 8.85677 14.4128 8.96723 14.2307 9.04257C14.0487 9.11792 13.8536 9.15667 13.6566 9.15663C13.4596 9.15658 13.2646 9.11773 13.0826 9.0423C12.9006 8.96687 12.7353 8.85633 12.596 8.717L8 4.122L3.404 8.718C3.2657 8.86133 3.10024 8.97568 2.91727 9.05438C2.7343 9.13308 2.53749 9.17455 2.33832 9.17637C2.13915 9.17819 1.94162 9.14033 1.75724 9.065C1.57286 8.98967 1.40533 8.87837 1.26443 8.73759C1.12352 8.59682 1.01206 8.4294 0.936554 8.24509C0.861046 8.06078 0.822999 7.86328 0.824636 7.66411C0.826272 7.46494 0.867558 7.26809 0.946084 7.08505C1.02461 6.90201 1.1388 6.73644 1.282 6.598L6.94 0.94Z" fill="white"/>
</svg>
